<svg xmlns="http://www.w3.org/2000/svg" viewBox="0 0 192 192" fill="none">
  <rect width="192" height="192" rx="44" fill="#10233F"/>
  <rect x="28" y="28" width="136" height="136" rx="32" fill="url(#panel)"/>
  <circle cx="64" cy="64" r="20" fill="#1E3A8A" opacity="0.9"/>
  <path d="M56 76V52h8.8c4.6 0 7.9 2.5 7.9 6.7 0 2.7-1.3 4.8-3.5 5.9L74 76h-7.1l-3.9-9.4H62.2V76H56Zm6.2-14.3h2.1c1.7 0 2.8-1 2.8-2.6s-1.1-2.5-2.8-2.5h-2.1v5.1Z" fill="#F8FAFC"/>
  <path d="M90 76V52h6.2v9.3h8.6V52h6.2v24h-6.2v-9.7h-8.6V76H90Z" fill="#F8FAFC"/>
  <path d="M121 76V52h16v5.1h-9.8v4.3h8.8v4.9h-8.8v4.6h10.1V76H121Z" fill="#F8FAFC"/>
  <defs>
    <linearGradient id="panel" x1="28" y1="28" x2="164" y2="164" gradientUnits="userSpaceOnUse">
      <stop stop-color="#182A46"/>
      <stop offset="1" stop-color="#244A87"/>
    </linearGradient>
  </defs>
</svg>
